<svg xmlns="http://www.w3.org/2000/svg" width="24" height="24" viewBox="0 0 24 24">
  <defs>
    <linearGradient id="grad-instagram" x1="0%" y1="0%" x2="100%" y2="100%">
      <stop offset="0%" style="stop-color: #4158d0;" />
      <stop offset="46%" style="stop-color: #c850c0;" />
      <stop offset="100%" style="stop-color: #ffcc70;" />
    </linearGradient>
  </defs>
  <path fill="url(#grad-instagram)" d="M12 2.25c2.832 0 3.175.013 4.283.062 1.107.051 1.98.234 2.674.503.685.274 1.233.636 1.78 1.183.546.546.909 1.095 1.183 1.78.269.694.452 1.567.503 2.674.05 1.108.062 1.45.062 4.283s-.013 3.175-.062 4.283c-.051 1.107-.234 1.98-.503 2.674-.274.685-.636 1.233-1.183 1.78-.546.546-1.095.909-1.78 1.183-.694.269-1.567.452-2.674.503-1.108.05-1.45.062-4.283.062s-3.175-.013-4.283-.062c-1.107-.051-1.98-.234-2.674-.503-.685-.274-1.233-.636-1.78-1.183-.546-.546-.909-1.095-1.183-1.78-.269-.694-.452-1.567-.503-2.674-.05-1.108-.062-1.45-.062-4.283s.013-3.175.062-4.283c.051-1.107.234-1.98.503-2.674.274-.685.636-1.233 1.183-1.78.546-.546 1.095-.909 1.78-1.183.694-.269 1.567-.452 2.674-.503 1.108-.05 1.45-.062 4.283-.062zm0-2.25c-2.832 0-3.175.013-4.283.062-1.107.051-1.98.234-2.674.503-.685.274-1.233.636-1.78 1.183-.546.546-.909 1.095-1.183 1.78-.269.694-.452 1.567-.503 2.674-.05 1.108-.062 1.45-.062 4.283s.013 3.175.062 4.283c.051 1.107.234 1.98.503 2.674.274.685.636 1.233 1.183 1.78.546.546 1.095.909 1.78 1.183.694.269 1.567.452 2.674.503 1.108.05 1.45.062 4.283.062s3.175-.013 4.283-.062c1.107-.051 1.98-.234 2.674-.503.685-.274 1.233-.636 1.78-1.183.546-.546.909-1.095 1.183-1.78.269-.694.452-1.567.503-2.674.05-1.108.062-1.45.062-4.283s-.013-3.175-.062-4.283c-.051-1.107-.234-1.98-.503-2.674-.274-.685-.636-1.233-1.183-1.78-.546-.546-1.095-.909-1.78-1.183-.694-.269-1.567-.452-2.674-.503-1.108-.05-1.45-.062-4.283-.062z"/>
  <path fill="#fff" d="M12 15.375a3.375 3.375 0 1 1 0-6.75 3.375 3.375 0 0 1 0 6.75zm0-5.25a1.875 1.875 0 1 0 0 3.75 1.875 1.875 0 0 0 0-3.75z"/>
  <circle cx="18.406" cy="5.594" r="1.125" fill="#fff"/>
</svg>